<svg width="75" height="58" viewBox="0 0 75 58" fill="none" xmlns="http://www.w3.org/2000/svg">
<path d="M34.7007 54.8996L52.3838 51.7782L52.5475 51.7413L43.4525 40.9375C40.4023 37.3343 37.3689 33.7172 34.3521 30.0862C34.3521 30.0335 43.7482 4.20236 43.8011 4.11273C48.9996 12.9974 54.1651 21.9014 59.2975 30.8244L74.8785 57.7944L75 58L17.1761 57.9947L34.7007 54.8996ZM0 51.6095C0 51.5936 4.28345 44.1644 9.52289 35.1005L19.0511 18.6127L30.1532 9.31164C36.2588 4.20236 41.2711 0 41.287 0C41.2476 0.155997 41.1891 0.306533 41.1127 0.448182L29.0493 26.2635L17.2183 51.6147L8.60915 51.6253C3.87148 51.6305 0 51.6253 0 51.6095Z" fill="#F0E8DF"/>
</svg>
