<svg width="209" height="72" viewBox="0 0 209 72" fill="none" xmlns="http://www.w3.org/2000/svg">
<path d="M184.461 30.4667C185.782 37.8026 180.94 45.5786 171.843 52.4743C171.77 52.5476 171.843 52.6944 171.917 52.621C179.179 47.9261 186.809 42.5709 192.017 35.5285C193.851 33.0343 195.465 29.9532 195.685 26.7988C196.199 20.8567 192.237 15.795 187.322 13.0074C184.021 11.1734 180.426 9.99967 176.758 9.19272C170.376 7.72555 163.774 7.2854 157.245 7.35876C153.944 7.43211 150.569 7.57883 147.268 7.87227C144.041 8.1657 140.886 8.60585 137.732 9.11936C134.577 9.63287 131.496 10.2931 128.342 11.0267C127.975 11.1 127.682 11.1734 127.315 11.2468C127.241 11.2468 127.241 11.3935 127.315 11.3935C157.392 8.67921 181.894 16.3819 184.461 30.4667Z" fill="black"/>
<path d="M157.61 3.8367C157.537 3.8367 157.463 3.68998 157.61 3.68998C159.958 3.24983 162.232 2.80968 164.579 2.44289C168.32 1.85602 171.988 1.34251 175.73 0.975715C182.185 0.388847 188.861 -0.0513048 195.316 0.902357C196.784 1.12243 198.177 1.41587 199.645 1.78266C203.166 2.80968 206.76 4.64365 207.714 8.45829C208.374 10.9525 207.934 13.52 207.201 15.9409C205.733 20.5625 202.799 24.7439 199.718 28.4852C199.498 28.7053 199.351 28.9253 199.131 29.1454C199.058 29.2188 198.984 29.1454 198.984 29.0721C200.231 25.6976 200.818 21.8829 200.158 18.3617C199.204 13.0799 195.023 9.26524 190.328 7.21119C184.606 4.717 178.297 4.05678 172.135 3.8367C167.22 3.46991 162.452 3.61662 157.61 3.8367Z" fill="black"/>
<path d="M48.6005 58.7814C48.6005 65.6771 43.0252 71.2523 36.1295 71.2523H0.0371094V59.8084H8.69342V62.596H36.1295C38.2569 62.596 40.0175 60.8354 40.0175 58.708C40.0175 56.5806 38.2569 54.82 36.1295 54.82H0.0371094V46.2371H29.0137C31.1411 46.2371 32.9018 44.4765 32.9018 42.3491C32.9018 40.2217 31.1411 38.4611 29.0137 38.4611H8.69342V41.2487H0.0371094V29.8781H29.0137C35.9095 29.8781 41.4847 35.4534 41.4847 42.3491C41.4847 44.0363 41.1913 45.5768 40.531 47.044C45.2994 48.878 48.6005 53.4262 48.6005 58.7814ZM109.708 29.8781H161.426V38.5344H109.708V29.8781ZM131.276 43.4494H139.932V71.2523H131.276V43.4494ZM86.8203 52.766L93.3492 61.4223H69.8011L62.3185 71.2523H51.4615L84.6929 27.4573L117.924 71.3257H107.067L84.6929 41.8356L76.33 52.8393H86.8203V52.766Z" fill="black"/>
</svg>
