<svg width="75" height="75" viewBox="0 0 75 75" fill="none" xmlns="http://www.w3.org/2000/svg">
<path d="M12.6161 37.6618C12.6229 31.7465 15.2835 26.0752 20.014 21.8925C24.7445 17.7097 31.1585 15.3572 37.8484 15.3512C42.275 15.3593 46.6219 16.3928 50.4562 18.3487C54.2905 20.3046 57.4782 23.1147 59.7019 26.499L53.315 29.7653L74.7339 18.8323C74.183 17.9484 73.3869 17.2029 72.4203 16.6661L41.125 0.69226C39.3184 -0.230753 36.3699 -0.230753 34.5676 0.69226L3.27227 16.6661C1.47423 17.5853 0 19.8457 0 21.688V53.6356C0 54.5586 0.366426 55.5833 0.962933 56.4913L15.9992 48.8133C13.7771 45.4257 12.6098 41.578 12.6161 37.6618Z" fill="#F0E8DF"/>
<path d="M48.7731 32.0821C47.6623 30.3894 46.069 28.9837 44.1522 28.0054C42.2353 27.027 40.0618 26.5102 37.8485 26.5063C35.6358 26.5102 33.4631 27.0279 31.5479 28.0078C29.6328 28.9877 28.0424 30.3953 26.9361 32.0896C25.8298 33.784 25.2463 35.7056 25.2441 37.6621C25.242 39.6185 25.8212 41.5411 26.9238 43.2374L37.8485 37.6616L48.7731 32.0821Z" fill="#F0E8DF"/>
<path d="M74.0371 18.5088L52.5372 29.4832L48.0805 31.7625L48.0762 31.7587L37.1516 37.3383L26.2312 42.914C27.3388 44.6087 28.9307 46.0162 30.8473 46.9955C32.7639 47.9747 34.938 48.4914 37.1516 48.4936C39.3661 48.4904 41.541 47.9734 43.4588 46.9943C45.3766 46.0152 46.9702 44.6083 48.0805 42.914L59.0008 48.5011C56.7778 51.8859 53.5902 54.6964 49.7558 56.6524C45.9214 58.6084 41.5741 59.6415 37.1473 59.6488C32.7185 59.6465 28.3683 58.6142 24.5332 56.6556C20.6982 54.6969 17.5133 51.8808 15.2981 48.4898L0.261841 56.1678C0.858349 57.0795 1.67642 57.8744 2.57544 58.334L33.8708 74.3078C35.6731 75.2308 38.6216 75.2308 40.4281 74.3078L71.7235 58.334C72.6225 57.8744 73.4406 57.0795 74.0371 56.1678C74.6336 55.2598 75 54.2351 75 53.3121V21.3645C75 20.4415 74.6336 19.4167 74.0371 18.5088ZM62.3839 38.5778H59.5803V41.0567H56.781V38.5778H53.9774V36.0988H56.781V33.6198H59.5803V36.0988H62.3839V38.5778ZM72.8995 38.5778H70.0959V41.0567H67.2923V38.5778H64.493V36.0988H67.2923V33.6198H70.0959V36.0988H72.8995V38.5778Z" fill="#F0E8DF"/>
</svg>
