<svg width="56" height="80" viewBox="0 0 56 80" fill="none" xmlns="http://www.w3.org/2000/svg">
<path d="M28 2.5H15.5C8.59646 2.5 3 8.09646 3 15C3 21.9035 8.59646 27.5 15.5 27.5M28 2.5V27.5M28 2.5H40.5C47.4037 2.5 53 8.09646 53 15C53 21.9035 47.4037 27.5 40.5 27.5M15.5 27.5H28M15.5 27.5C8.59646 27.5 3 33.0962 3 40C3 46.9037 8.59646 52.5 15.5 52.5M28 27.5H40.5M28 27.5V52.5M40.5 27.5C47.4037 27.5 53 33.0962 53 40C53 46.9037 47.4037 52.5 40.5 52.5C33.5962 52.5 28 46.9037 28 40C28 33.0962 33.5962 27.5 40.5 27.5ZM28 52.5H15.5M28 52.5V65C28 71.9037 22.4037 77.5 15.5 77.5C8.59646 77.5 3 71.9037 3 65C3 58.0962 8.59646 52.5 15.5 52.5" stroke="#F0E8DF" stroke-width="5" stroke-linecap="round" stroke-linejoin="round"/>
</svg>
