<svg width="75" height="75" viewBox="0 0 75 75" fill="none" xmlns="http://www.w3.org/2000/svg">
<g clip-path="url(#clip0_11_163)">
<path d="M16.649 0.149392C17.5611 -0.180836 18.5819 0.0463787 19.2678 0.732305L29.6611 11.1256C29.6017 11.2162 29.5474 11.3118 29.499 11.412L10.8761 49.9421L16.649 0.149392Z" fill="#F0E8DF"/>
<path d="M11.3091 59.701L36.2138 74.644C36.8837 75.046 37.7031 75.1115 38.4285 74.821L63.4285 64.821C64.472 64.404 65.109 63.341 64.9845 62.224L59.9845 17.2239C59.8815 16.2951 59.269 15.5014 58.3965 15.1663C57.524 14.8312 56.5375 15.0106 55.839 15.6315L47.5638 22.9873L11.3091 59.701Z" fill="#F0E8DF"/>
<path d="M44.6915 18.7801L39.5803 11.1133C39.0967 10.3879 38.2702 9.9668 37.3991 10.0021C36.528 10.0373 35.7382 10.5238 35.3148 11.2859L33.7659 14.074L18.8364 44.9624L44.6915 18.7801Z" fill="#F0E8DF"/>
</g>
<defs>
<clipPath id="clip0_11_163">
<rect width="75" height="75" fill="white"/>
</clipPath>
</defs>
</svg>
