<svg width="75" height="75" viewBox="0 0 75 75" fill="none" xmlns="http://www.w3.org/2000/svg">
<path d="M73.5771 34.1566L40.8309 1.41288C39.9557 0.540144 38.7478 0 37.4125 0C36.0771 0 34.8693 0.540144 33.9941 1.41288L27.2098 8.20969L35.8346 16.8345C36.3847 16.6419 37.0174 16.5319 37.6775 16.5319C40.8509 16.5319 43.4216 19.1026 43.4216 22.2759C43.4216 22.9486 43.3066 23.5913 43.094 24.1915L43.1065 24.1514L51.4137 32.4637C51.9689 32.2661 52.6115 32.1511 53.2792 32.1511C56.4501 32.1511 59.0207 34.7218 59.0207 37.8926C59.0207 41.0635 56.4501 43.6341 53.2792 43.6341C50.1084 43.6341 47.5377 41.0635 47.5377 37.8926C47.5377 37.1099 47.6952 36.3647 47.9778 35.6845L47.9628 35.722L40.1857 27.985V48.3754C42.0962 49.3382 43.3841 51.2837 43.3841 53.5293C43.3841 56.7051 40.8084 59.2808 37.6325 59.2808C34.4567 59.2808 31.881 56.7051 31.881 53.5293C31.881 51.9439 32.5212 50.511 33.5589 49.4707C34.0866 48.9431 34.7143 48.5154 35.4119 48.2154L35.4495 48.2004V27.6099C33.3439 26.7246 31.8935 24.6766 31.8935 22.2934C31.8935 21.4932 32.056 20.733 32.3511 20.0403L32.3361 20.0779L23.8614 11.5631L1.40537 34.0041C0.535143 34.8818 0 36.0896 0 37.425C0 38.7603 0.537643 39.9682 1.40788 40.8459L34.1566 73.5846C35.0293 74.4599 36.2372 75 37.5725 75C38.9079 75 40.1132 74.4599 40.9884 73.5846L73.5821 40.9909C74.4574 40.1182 75 38.9079 75 37.575C75 36.2422 74.4574 35.0318 73.5821 34.1591L73.5771 34.1566Z" fill="#F0E8DF"/>
</svg>
