<svg width="75" height="75" viewBox="0 0 75 75" fill="none" xmlns="http://www.w3.org/2000/svg">
<g clip-path="url(#clip0_7_32)">
<path fill-rule="evenodd" clip-rule="evenodd" d="M57.48 69.1205C50.9363 69.1205 46.7062 66.0008 44.6437 61.9208L50.3812 58.5974C51.8925 61.0649 53.8537 62.8766 57.33 62.8766C60.2475 62.8766 62.1112 61.4168 62.1112 59.4031C62.1112 56.3731 58.0687 55.1892 55.215 53.9667C50.13 51.8029 46.755 49.0841 46.755 43.3429C46.755 38.0591 50.7825 34.032 57.0788 34.032C61.5563 34.032 64.7812 35.5917 67.095 39.668L61.6087 43.1927C60.4012 41.029 59.0925 40.1733 57.0788 40.1733C55.0125 40.1733 53.7038 41.4827 53.7038 43.1927C53.7038 45.3077 55.0125 46.1632 58.035 47.4719C64.3688 50.1869 69.1612 52.3199 69.1612 59.3024C69.1612 65.6474 64.1775 69.1205 57.48 69.1205ZM41.25 58.4967C41.25 65.798 36.7537 69.657 30.5099 69.657C24.8699 69.657 21.4912 67.5 19.83 63.75H19.7738H19.7475H19.7325L25.4662 59.7418C26.5724 61.7031 27.57 63.0945 29.985 63.0945C32.3025 63.0945 33.75 61.9209 33.75 58.3997V33.75H41.25V58.4967ZM0 75H75V0H0V75Z" fill="#F0E8DF"/>
</g>
<defs>
<clipPath id="clip0_7_32">
<rect width="75" height="75" fill="white"/>
</clipPath>
</defs>
</svg>
