<svg width="75" height="75" viewBox="0 0 75 75" fill="none" xmlns="http://www.w3.org/2000/svg">
<g clip-path="url(#clip0_11_157)">
<path d="M75.4032 73.1626L73.8157 71.65C73.0313 70.6157 72.1969 69.7001 71.2875 68.8657L71.2719 68.8532C70.3386 68.0053 69.3688 67.199 68.3625 66.4344C67.5563 65.8803 66.448 65.2126 65.0375 64.4313C63.8782 63.9094 62.9719 62.9938 62.4813 61.8563L62.4688 61.8251L62.3188 61.7501C62.9813 61.6844 63.5875 61.5626 64.1688 61.3907L64.0969 61.4094L65.8782 60.9188C66.6157 60.6875 67.4688 60.5376 68.3532 60.5032H68.3719C69.3032 60.4657 70.1813 60.3157 71.0188 60.0688L70.9407 60.0876C71.3448 59.9876 71.7605 59.874 72.1875 59.7469C72.6146 59.6198 72.9803 59.5063 73.2844 59.4063V58.8782C72.9823 58.4261 72.6167 57.9094 72.1875 57.3282C71.7782 56.7719 71.3188 56.2876 70.8032 55.8657L70.7875 55.8532C69.4771 54.6948 68.1198 53.574 66.7157 52.4907C65.4782 51.5251 64.075 50.5407 62.6188 49.6282L62.4063 49.5032C61.6375 48.9969 60.7563 48.5282 59.8282 48.1438L59.7219 48.1063C58.7886 47.7271 57.8688 47.3115 56.9625 46.8594C56.6594 46.7094 56.3063 46.5782 55.9407 46.4875L55.9063 46.4813C55.5407 46.4063 55.2282 46.2188 55 45.9532L54.9969 45.95C54.5657 45.3813 54.1875 44.7344 53.8875 44.0469L53.8625 43.9844C53.5605 43.2782 53.2334 42.6 52.8813 41.95C52.1251 40.4875 51.3938 39.0011 50.6875 37.4907C49.9813 35.9803 49.3032 34.4678 48.6532 32.9532C48.2011 31.9448 47.7855 30.9375 47.4063 29.9313C46.9875 28.825 46.5157 27.8782 45.9657 26.9875L46.0063 27.0594C44.6563 24.7594 43.3094 22.7969 41.8469 20.9313L41.9344 21.05C40.4875 19.225 38.9875 17.5938 37.375 16.0813L37.35 16.0594C35.7594 14.5657 34.0469 13.1407 32.25 11.8219L32.0969 11.7125C30.2303 10.3563 28.1886 9.02088 25.9719 7.7063C25.0813 7.1813 24.0469 6.75317 22.9563 6.47817L22.875 6.45942L19.3969 5.59067L17.4313 5.44067C16.7771 5.39067 16.1219 5.36567 15.4657 5.36567C15.0032 5.12192 14.6063 4.8313 14.2563 4.4938C13.9125 4.16567 13.5407 3.8563 13.1532 3.57192L13.1219 3.55005C11.2313 2.44692 9.03442 1.43755 6.73755 0.643799L6.47192 0.562549C5.8688 0.209424 5.1438 0.00317383 4.37192 0.00317383C3.82192 0.00317383 3.2938 0.109424 2.81255 0.300049L2.84067 0.290674C1.65317 0.762549 0.746924 1.72192 0.356299 2.91567L0.346924 2.94692C0.118799 3.48442 -0.0124512 4.1063 -0.0124512 4.76255C-0.0124512 5.91255 0.393799 6.96567 1.07192 7.78755L1.06567 7.77817C2.19901 9.28859 3.06776 10.4761 3.67192 11.3407C4.12401 11.9469 4.59067 12.5771 5.07192 13.2313C5.51255 13.8188 5.90317 14.4907 6.2188 15.2L6.2438 15.2657C6.4188 15.6375 6.57192 16.0813 6.68442 16.5375L6.6938 16.5875C6.7938 17.0167 6.91984 17.4834 7.07192 17.9875C7.52401 19.1459 7.95213 20.3334 8.3563 21.55C8.79692 22.8782 9.28442 24.0032 9.85005 25.075L9.79067 24.95C10.0928 25.5042 10.3959 26.0459 10.7 26.575C11.0042 27.1042 11.3313 27.6209 11.6813 28.125C11.8844 28.4313 12.1407 28.6844 12.4344 28.8813L12.4438 28.8875C12.7532 29.1125 12.9563 29.4657 12.9719 29.8657C12.6157 30.3907 12.375 31.0219 12.2938 31.7L12.2907 31.7188C12.1813 32.5094 12.025 33.2125 11.8125 33.8907L11.8375 33.7969C11.1407 35.8782 10.7407 38.2782 10.7407 40.7688C10.7407 41.575 10.7813 42.3688 10.8657 43.1532L10.8563 43.0563C11.0438 46.05 11.9469 48.8001 13.3938 51.1813L13.35 51.1032C13.9657 52.0251 14.625 52.8282 15.3532 53.5625C15.8782 54.15 16.6407 54.5188 17.4907 54.5188C17.9657 54.5188 18.4157 54.4032 18.8094 54.1969L18.7938 54.2032C19.8875 53.8094 20.6657 52.8094 20.7219 51.6188V51.6126C20.8719 50.1313 21.0969 48.8063 21.4063 47.5125L21.3657 47.7219C21.4407 47.525 21.4844 47.3 21.4844 47.0625C21.4844 47.0157 21.4813 46.9688 21.4782 46.9219V46.9282C21.4532 46.7011 21.5917 46.4865 21.8938 46.2844V46.4344C22.1959 47.1407 22.5105 47.8459 22.8375 48.55C23.1646 49.2542 23.5042 49.9594 23.8563 50.6657C24.7782 52.0688 25.7563 53.2938 26.8313 54.4219L26.8219 54.4126C27.9 55.5751 29.075 56.6188 30.3438 57.5407L30.4125 57.5875C31.075 58.0938 31.6563 58.6407 32.1813 59.2375L32.1938 59.25C32.6875 59.8313 33.2782 60.3094 33.9438 60.6688L33.975 60.6844V60.6094H34.125C34.0032 60.3376 33.8063 60.1188 33.5625 59.9688L33.5563 59.9657C33.3094 59.8282 33.0969 59.6907 32.8969 59.5407L32.9125 59.55C32.4605 59.098 31.9938 58.5938 31.5125 58.0376C31.0313 57.4813 30.5907 56.9521 30.1907 56.45C29.1323 54.9875 28.123 53.4594 27.1625 51.8657C26.2021 50.2719 25.2948 48.6521 24.4407 47.0063C24.0365 46.2 23.6459 45.3688 23.2688 44.5125C22.8917 43.6563 22.5261 42.825 22.1719 42.0188C22.0188 41.7094 21.9125 41.3532 21.8719 40.975V40.9594C21.8532 40.6 21.6469 40.2907 21.3469 40.1313L21.3407 40.1282C20.9625 40.7719 20.5438 41.3282 20.0657 41.8313L20.0688 41.8282C19.5719 42.35 19.1657 42.9657 18.875 43.6407L18.8594 43.6813C18.4188 44.75 18.0969 45.9907 17.9563 47.2875L17.95 47.3469C17.8 48.6823 17.649 50.0553 17.4969 51.4657L17.3469 51.5407L17.2719 51.6157C16.4594 51.4501 15.7907 50.9313 15.4282 50.2313L15.4219 50.2157C15.0428 49.4844 14.7032 48.7657 14.4032 48.0594C13.6282 46.0688 13.1469 43.7657 13.0813 41.3594V41.3313C13.0532 40.95 13.0407 40.5032 13.0407 40.0563C13.0407 37.975 13.3688 35.9688 13.975 34.0875L13.9375 34.225C14.0875 33.6709 14.4146 32.7375 14.9188 31.425C15.423 30.1125 15.524 29.2053 15.2219 28.7032C15.0657 28.1875 14.775 27.7532 14.3938 27.4219L14.3907 27.4188C14.0094 27.0875 13.6625 26.7407 13.3438 26.3719L13.3344 26.3594C12.9823 25.8511 12.6428 25.3094 12.3157 24.7344C11.9886 24.1594 11.699 23.5928 11.4469 23.0344C10.9313 21.8407 10.4032 20.3438 9.96567 18.8063L9.89692 18.5282C9.40005 16.7625 8.84692 15.2688 8.19067 13.8313L8.27192 14.0313C7.92505 13.2438 7.52192 12.5625 7.05317 11.9407L7.07192 11.9657C6.56359 11.2865 6.10942 10.6438 5.70942 10.0375C5.20109 9.38338 4.69692 8.75317 4.19692 8.14692C3.68755 7.5313 3.23442 6.83755 2.86567 6.0938L2.83755 6.0313C2.68755 5.72817 2.5563 5.37505 2.46567 5.00942L2.45942 4.97505C2.42505 4.86567 2.4063 4.73755 2.4063 4.60942C2.4063 4.35317 2.4813 4.11255 2.61255 3.91255L2.60942 3.9188C2.6438 3.7438 2.72505 3.59067 2.83755 3.46567C2.95942 3.3563 3.11567 3.27505 3.28442 3.24067H3.29067C3.5563 3.0688 3.87817 2.96567 4.22817 2.96567C4.49067 2.96567 4.7438 3.02505 4.96567 3.1313L4.9563 3.12817C5.64067 3.32192 6.1938 3.51567 6.73442 3.73755L6.62192 3.69692C7.57817 4.10109 8.46047 4.49172 9.2688 4.8688C10.2 5.31255 10.9938 5.7813 11.7438 6.30317L11.6875 6.26567C12.0917 6.51776 12.4948 6.79484 12.8969 7.09692C13.299 7.39901 13.7271 7.70213 14.1813 8.0063H15.2407C16.0469 8.0063 16.9032 8.04484 17.8094 8.12192C18.725 8.1938 19.5719 8.36567 20.3782 8.63442L20.3032 8.61255C21.8063 9.05942 23.0969 9.58755 24.3219 10.2219L24.1938 10.1625C25.4292 10.7917 26.6011 11.4594 27.7094 12.1657C29.55 13.3125 31.1407 14.4875 32.6375 15.7719L32.5844 15.7282C34.1469 17.0657 35.5657 18.4375 36.8969 19.8875L36.9282 19.925C38.2282 21.3438 39.4688 22.8844 40.6032 24.5L40.7 24.6469C41.7438 26.1219 42.7969 27.8282 43.7438 29.5969L43.875 29.8625C44.1282 30.3438 44.3844 30.9344 44.6063 31.5375L44.6407 31.6407C44.8428 32.2198 45.0688 32.8136 45.3188 33.4219C45.873 34.6823 46.4667 35.9542 47.1 37.2375C47.7334 38.5209 48.3271 39.7688 48.8813 40.9813L50.5438 44.6094C51.1282 45.8782 51.7813 46.9719 52.5407 47.9813L52.5063 47.9344C53.1407 48.6125 53.9875 49.0875 54.9375 49.2532L54.9625 49.2563C56.1125 49.5438 57.0813 49.8688 58.0188 50.2532L57.8719 50.2C58.3188 50.4032 58.8938 50.6188 59.4844 50.8094L59.6094 50.8438C60.2719 51.0469 60.8469 51.3157 61.375 51.6532L61.3469 51.6376C62.3688 52.2094 63.2344 52.7719 64.0594 53.3844L63.9938 53.3376C64.85 53.9667 65.7063 54.5605 66.5625 55.1188C66.9667 55.4209 67.6448 55.8615 68.5969 56.4407C69.549 57.0198 70.0532 57.5615 70.1094 58.0657C69.7532 58.0532 69.3313 58.0438 68.9094 58.0438C67.3719 58.0438 65.8594 58.1438 64.3782 58.3375L64.5532 58.3188C62.8782 58.5438 61.3594 58.9532 59.9313 59.5376L60.0563 59.4938C59.7032 59.6469 59.2813 59.7875 58.8438 59.8969L58.7844 59.9094C58.3407 59.975 57.9969 60.3313 57.9532 60.7751C58.1438 61.0126 58.2969 61.2907 58.4 61.5907L58.4063 61.6094C58.5125 61.9282 58.6407 62.2032 58.7969 62.4594L58.7875 62.4407C59.1594 63.1001 59.5594 63.6688 60.0094 64.1938L59.9969 64.1782C60.4375 64.7219 60.9344 65.1938 61.4844 65.5969L61.5063 65.6126C62.0146 66.0167 62.5438 66.4323 63.0938 66.8594C63.5969 67.2532 64.1657 67.6407 64.7563 67.9907L64.8313 68.0313C65.7188 68.5751 66.75 69.0938 67.825 69.5282L67.9688 69.5782C69.1375 70.0469 70.1407 70.5907 71.0719 71.2375L71.0219 71.2032C71.6282 71.5553 72.2323 71.9459 72.8344 72.3751C73.4365 72.8042 74.0157 73.2198 74.5719 73.6219C74.8001 73.8469 75.0001 74.0969 75.1688 74.3688L75.1782 74.3844C75.4625 74.7094 75.8563 74.9313 76.3032 74.9876H76.3125V74.8376C76.0375 74.6282 75.8344 74.3375 75.7375 74.0032L75.7344 73.9907C75.6563 73.6719 75.5407 73.3938 75.3844 73.1375L75.3907 73.1501L75.4032 73.1626ZM17.3532 13.1469C16.949 13.1469 16.5709 13.1594 16.2188 13.1844C15.8594 13.2094 15.525 13.275 15.2094 13.3813L15.2375 13.3719V13.4469H15.3875C15.5896 13.749 15.8438 14.0886 16.1501 14.4657C16.4563 14.8428 16.7334 15.2084 16.9813 15.5625L18.1907 18.0563L18.3407 17.9813C18.6938 17.725 18.9657 17.3813 19.1282 16.9782L19.1344 16.9625C19.2969 16.5282 19.3907 16.0219 19.3907 15.4969C19.3907 15.4407 19.3907 15.3844 19.3875 15.3282V15.3375C19.2469 15.2 19.1313 15.0375 19.0501 14.8563L19.0469 14.8469L18.7938 14.2782C18.6282 14.0157 18.3969 13.8094 18.1251 13.6782L18.1157 13.675C17.8219 13.5344 17.5719 13.3563 17.3532 13.1469Z" fill="#F0E8DF"/>
</g>
<defs>
<clipPath id="clip0_11_157">
<rect width="75" height="75" fill="white"/>
</clipPath>
</defs>
</svg>
