<svg width="75" height="76" viewBox="0 0 75 76" fill="none" xmlns="http://www.w3.org/2000/svg">
<path d="M70.0736 31.1C70.9237 28.5409 71.2177 25.83 70.936 23.1483C70.6542 20.4666 69.8032 17.8759 68.4398 15.5492C66.4185 12.0324 63.3321 9.24801 59.6256 7.59755C55.9191 5.94709 51.784 5.5158 47.8165 6.36585C45.5624 3.85964 42.6883 1.99039 39.4828 0.945841C36.2773 -0.09871 32.8532 -0.281785 29.5545 0.415003C26.2558 1.11179 23.1986 2.66391 20.6899 4.91547C18.1813 7.16704 16.3095 10.0388 15.2626 13.2423C12.6194 13.784 10.1223 14.8835 7.93821 16.4672C5.75415 18.0508 3.9334 20.0822 2.59766 22.4256C0.554384 25.9365 -0.3189 30.006 0.104065 34.0457C0.52703 38.0854 2.22433 41.886 4.95057 44.8981C4.0973 47.4559 3.80033 50.1663 4.07951 52.8481C4.3587 55.5299 5.2076 58.1212 6.56944 60.4486C8.59332 63.9667 11.6824 66.7516 15.3915 68.4021C19.1006 70.0526 23.2382 70.4833 27.208 69.6322C28.9988 71.6479 31.1992 73.2586 33.6623 74.3566C36.1254 75.4547 38.7945 76.0148 41.4915 75.9997C45.5581 76.0034 49.5207 74.7154 52.8073 72.3216C56.0939 69.9277 58.5345 66.5519 59.7768 62.6814C62.4197 62.1387 64.9164 61.0388 67.1003 59.4552C69.2843 57.8715 71.1052 55.8406 72.4417 53.4977C74.4608 49.992 75.3191 45.9377 74.8937 41.9149C74.4684 37.8921 72.7812 34.1064 70.0736 31.1ZM41.4915 71.0255C38.1609 71.0308 34.9349 69.864 32.3789 67.7297L32.8284 67.4751L47.9663 58.7408C48.3431 58.5199 48.6559 58.2049 48.874 57.8266C49.0921 57.4484 49.208 57.0199 49.2104 56.5833V35.2499L55.6098 38.9504C55.6415 38.9665 55.6689 38.9897 55.6898 39.0183C55.7107 39.047 55.7246 39.0801 55.7302 39.1151V56.7933C55.7222 60.5655 54.2195 64.1809 51.5509 66.8482C48.8823 69.5156 45.2653 71.0176 41.4915 71.0255ZM10.8859 57.9618C9.21562 55.0789 8.61591 51.6996 9.19227 48.4184L9.64213 48.6882L24.7949 57.4225C25.1698 57.6424 25.5967 57.7584 26.0314 57.7584C26.4661 57.7584 26.8929 57.6424 27.2679 57.4225L45.7781 46.7556V54.1415C45.7764 54.1798 45.766 54.2172 45.7478 54.2509C45.7296 54.2846 45.704 54.3138 45.673 54.3363L30.3402 63.1754C27.0681 65.0596 23.1816 65.5688 19.5341 64.5913C15.8866 63.6138 12.7762 61.2295 10.8859 57.9618ZM6.89924 25.0026C8.5811 22.1012 11.2358 19.8882 14.3932 18.7554V36.7331C14.3876 37.1675 14.4986 37.5954 14.7147 37.9722C14.9309 38.349 15.2443 38.6609 15.6221 38.8754L34.0424 49.4973L27.6427 53.1975C27.608 53.2159 27.5694 53.2255 27.5302 53.2255C27.491 53.2255 27.4524 53.2159 27.4177 53.1975L12.1151 44.3737C8.84905 42.4813 6.46632 39.3724 5.48871 35.7277C4.51111 32.083 5.01831 28.1995 6.89924 24.9279V25.0026ZM59.4771 37.2126L40.9969 26.4858L47.3818 22.7999C47.4164 22.7815 47.4551 22.7719 47.4943 22.7719C47.5335 22.7719 47.5721 22.7815 47.6067 22.7999L62.9093 31.6389C65.2491 32.9884 67.1565 34.9754 68.4089 37.3678C69.6614 39.7602 70.2071 42.4593 69.9823 45.1501C69.7576 47.8409 68.7718 50.4123 67.1399 52.564C65.508 54.7158 63.2974 56.3591 60.7662 57.3022V39.3244C60.7529 38.8908 60.6271 38.4681 60.401 38.0978C60.1749 37.7275 59.8568 37.4227 59.4771 37.2126ZM65.8471 27.6395L65.3972 27.3697L50.2745 18.5607C49.8973 18.3394 49.4678 18.2227 49.0305 18.2227C48.5931 18.2227 48.1636 18.3394 47.7864 18.5607L29.2916 29.2272V21.8416C29.2877 21.8041 29.294 21.7662 29.3098 21.7319C29.3256 21.6976 29.3504 21.6682 29.3816 21.6469L44.6842 12.8227C47.0296 11.4721 49.7111 10.817 52.4153 10.9339C55.1194 11.0509 57.7344 11.935 59.9543 13.4829C62.1742 15.0308 63.9073 17.1785 64.9509 19.6748C65.9945 22.1711 66.3055 24.9128 65.8474 27.5793L65.8471 27.6395ZM25.7989 40.7326L19.3994 37.0473C19.3674 37.028 19.34 37.0019 19.3192 36.9709C19.2984 36.9399 19.2847 36.9047 19.279 36.8677V19.2348C19.2825 16.5298 20.0564 13.8816 21.5101 11.6C22.9638 9.31839 25.0373 7.49758 27.4882 6.35046C29.939 5.20334 32.6659 4.77733 35.3501 5.12224C38.0342 5.46715 40.5647 6.56871 42.6456 8.29815L42.1957 8.55306L27.0582 17.2867C26.6814 17.5076 26.3686 17.8226 26.1505 18.2009C25.9323 18.5791 25.8164 19.0076 25.8141 19.4441L25.7989 40.7326ZM29.2761 33.2422L37.5194 28.4929L45.7781 33.2422V42.7403L37.5495 47.4893L29.2913 42.7403L29.2761 33.2422Z" fill="#F0E8DF"/>
</svg>
