<svg width="75" height="48" viewBox="0 0 75 48" fill="none" xmlns="http://www.w3.org/2000/svg">
<path d="M50.6966 39.2197H24.3209C15.9661 39.0462 9.2608 32.2976 9.2608 24C9.2608 15.7024 15.9661 8.95375 24.3059 8.78027H24.3234H50.6992C50.7067 8.78027 50.7167 8.78027 50.7267 8.78027C59.2141 8.78027 66.0971 15.5933 66.0971 24C66.0971 32.4067 59.2166 39.2197 50.7267 39.2197C50.7167 39.2197 50.7067 39.2197 50.6966 39.2197ZM51.2999 0.5H23.7127C10.6124 0.509914 0 11.0282 0 24C0 36.9644 10.5999 47.4752 23.6851 47.5H51.2999C64.3926 47.4802 75 36.9669 75 24C75 11.0331 64.3901 0.519827 51.2999 0.5Z" fill="#F0E8DF"/>
</svg>
