<svg width="75" height="77" viewBox="0 0 75 77" fill="none" xmlns="http://www.w3.org/2000/svg">
<path d="M59.0309 22.9146C59.005 23.3126 58.819 23.6643 58.5374 23.9081L58.5348 23.9107C58.1964 24.2778 57.7443 24.5345 57.2328 24.6244L57.2199 24.627C57.1476 24.6372 57.0623 24.6449 56.977 24.6449C56.9745 24.6449 56.9693 24.6449 56.9667 24.6449C56.1607 24.6449 55.4683 24.1597 55.1738 23.464L55.1687 23.4512C55.0912 22.8838 56.0212 22.4551 56.9796 22.3216C57.9381 22.1881 58.9534 22.3499 59.0309 22.9146ZM33.4293 24.2342C33.1167 25.0326 32.3494 25.5897 31.4504 25.5897C31.4401 25.5897 31.4323 25.5897 31.422 25.5897H31.4246C31.3316 25.5897 31.2437 25.5819 31.1533 25.5717H31.1636C30.4894 25.451 29.9159 25.0813 29.5361 24.5653L29.5309 24.5576C29.3191 24.3163 29.1899 23.9954 29.1899 23.6489V23.6463C29.2209 23.4486 29.332 23.2792 29.487 23.1714L29.4896 23.1688C29.8823 22.9532 30.3525 22.8274 30.8536 22.8274C31.0681 22.8274 31.2773 22.8505 31.4788 22.8941L31.4607 22.8915C32.4812 23.0327 33.5352 23.5128 33.4345 24.2342H33.4293ZM61.8933 43.8551L61.6168 43.5111L61.5032 43.3699C62.6838 41.1981 63.3761 38.613 63.3761 35.8712C63.3761 34.6184 63.2315 33.4016 62.9576 32.2309L62.9783 32.3388C62.7975 31.1758 62.6915 29.8332 62.6915 28.4675C62.6915 28.4495 62.6915 28.4315 62.6915 28.4135C62.751 27.1274 62.8879 25.926 63.0997 24.7476L63.0739 24.917C63.3038 23.7259 63.4356 22.355 63.4356 20.9533C63.4356 20.8224 63.4356 20.694 63.433 20.5657V20.5862C63.464 20.4604 63.4821 20.3192 63.4821 20.1703C63.4821 20.101 63.4769 20.0343 63.4717 19.9675V19.9752C62.4384 15.9191 60.4982 12.4046 57.8709 9.5191L57.889 9.53964C55.5355 6.79789 52.6421 4.58755 49.3637 3.06265L49.2087 2.99847C51.0068 2.61596 53.0735 2.39775 55.1919 2.39775C55.3857 2.39775 55.5794 2.40031 55.7732 2.40288H55.7448C55.861 2.40031 55.9954 2.39775 56.1323 2.39775C62.2756 2.39775 67.7473 5.24475 71.2865 9.6834L71.3175 9.72448C71.3899 9.8169 71.4622 9.92215 71.5242 10.0325L71.532 10.0454C73.8674 14.3942 70.6407 30.1772 61.8907 43.8603L61.8933 43.8551ZM61.1544 21.3564C61.1131 22.5244 60.9891 23.6309 60.7927 24.7117L60.8134 24.5705C60.6119 25.6615 60.4672 26.9605 60.4078 28.2801L60.4052 28.3442C60.4052 28.3879 60.4052 28.4367 60.4052 28.488C60.4052 29.9436 60.5137 31.3735 60.7256 32.7701L60.7049 32.6135C60.9245 33.5813 61.0511 34.6903 61.0511 35.8327C61.0511 37.7915 60.6791 39.6655 59.9996 41.3829L60.0358 41.2803C59.8395 40.944 59.6354 40.5383 59.4571 40.1173L59.4287 40.0429C59.2582 39.6347 58.8888 38.9749 58.3798 38.0661C56.3932 34.5234 51.7379 26.2289 54.1198 22.8453C55.3443 21.1048 58.4496 21.0303 61.1518 21.3589L61.1544 21.3564ZM59.3176 51.0972C59.1859 48.4299 60.1856 48.15 61.2448 47.8548C61.3912 47.8154 61.5368 47.7718 61.6814 47.7239C61.8106 47.8368 61.9527 47.9472 62.0999 48.0448L62.1129 48.0525C63.7146 48.7533 65.5798 49.1589 67.5432 49.1589C69.0726 49.1589 70.5425 48.9125 71.9169 48.4555L71.8187 48.4838C70.93 49.2359 69.9173 49.8803 68.822 50.3783L68.7419 50.4117C67.0782 51.0895 65.1484 51.513 63.1281 51.5772H63.1023C62.7949 51.6234 62.441 51.6517 62.0819 51.6517C61.0847 51.6517 60.134 51.4463 59.2737 51.0766L59.3202 51.0946L59.3176 51.0972ZM56.4423 56.2983C56.388 56.8656 56.326 57.5048 56.2434 58.2108L55.7732 59.6176C55.737 59.7203 55.7163 59.8384 55.7138 59.9616C55.7163 60.0309 55.7163 60.1105 55.7163 60.1901C55.7163 61.1015 55.5794 61.9846 55.3262 62.8138L55.3418 62.7496C55.0421 63.7482 54.8354 64.906 54.7656 66.0998L54.7631 66.1408C54.6287 70.464 51.2625 73.963 46.9922 74.3404L46.9586 74.343C42.0656 75.3852 41.1976 72.7487 40.4329 70.4229C40.3554 70.1799 40.2727 69.9377 40.1849 69.6964C39.7716 68.0226 39.5339 66.0998 39.5339 64.123C39.5339 63.1988 39.5855 62.2875 39.6863 61.389L39.676 61.4994C39.6915 61.1708 39.6992 60.7831 39.6992 60.3955C39.6992 57.7616 39.3014 55.22 38.5599 52.8274L38.609 53.0097C38.6228 52.0684 38.6435 51.1151 38.671 50.1499C38.671 50.1422 38.671 50.1293 38.671 50.1191C38.671 50.001 38.6529 49.888 38.6194 49.7802L38.6219 49.7879C38.5858 49.5312 38.5367 49.3053 38.4721 49.0871L38.4799 49.1204C38.1156 47.7829 37.1985 46.7047 35.9894 46.1322L35.961 46.1194C35.5063 45.8935 34.969 45.76 34.3981 45.76C34.1294 45.76 33.8685 45.7882 33.6179 45.8447L33.6411 45.8396C33.9718 44.633 34.3128 43.6472 34.7055 42.6871L34.6383 42.8745L34.8088 42.4201C35 41.9066 35.2403 41.3752 35.496 40.813C36.9066 37.9275 37.7307 34.5363 37.7307 30.9525C37.7307 28.5445 37.3587 26.2237 36.6689 24.0416L36.7128 24.2034C36.24 21.3589 33.7806 19.2153 30.82 19.2153C30.355 19.2153 29.9004 19.2693 29.4663 19.3694L29.5077 19.3617C27.4513 19.6287 25.5912 20.2294 23.8991 21.1125L23.9895 21.0688C23.776 21.1767 23.565 21.2879 23.3566 21.4026C23.5917 15.8908 25.6713 10.9028 28.991 6.98786L28.96 7.02381C29.2648 6.71831 29.5852 6.42822 29.9159 6.1561L29.9391 6.13813C30.1174 6.10219 30.2749 6.03031 30.4093 5.93019L30.4067 5.93275C32.7137 4.25382 35.6097 3.24492 38.7434 3.24492C38.9939 3.24492 39.242 3.25005 39.4874 3.26289L39.4538 3.26032C40.8127 3.28086 42.125 3.37327 43.4167 3.53757L43.2437 3.5196C48.5216 4.52851 53.027 7.27539 56.2434 11.1262L56.2718 11.1621C58.2042 13.393 59.7697 16.0064 60.8341 18.8585L60.8909 19.0356C60.227 18.8585 59.4649 18.7558 58.6795 18.7558C56.14 18.7558 53.8537 19.8238 52.2468 21.5309L52.2417 21.5361C49.0382 26.0877 53.9958 34.9239 56.3777 39.17C56.8143 39.9479 57.1915 40.6205 57.3103 40.9054C57.982 42.4483 58.8268 43.7756 59.842 44.9539L59.824 44.9334C60.0487 45.2132 60.2657 45.4827 60.4336 45.7189C59.1394 46.0886 56.8143 46.946 57.0261 51.2281C56.9874 51.7287 56.8892 52.6606 56.7575 53.8415C56.618 54.532 56.5043 55.3741 56.4397 56.2289L56.4345 56.3008L56.4423 56.2983ZM32.6698 41.6294L32.4993 42.0812C32.1453 42.9233 31.7785 43.9938 31.4737 45.09L31.4246 45.2979C29.1176 45.2645 27.0457 44.2839 25.5835 42.7281L25.5783 42.723C23.9456 41.0107 22.9432 38.6925 22.9432 36.1408C22.9432 35.6325 22.982 35.1344 23.0595 34.6467L23.0517 34.7006C23.3023 32.8522 23.447 30.7189 23.447 28.5496C23.447 27.2609 23.3953 25.985 23.2972 24.7219L23.3075 24.8888C23.292 24.6141 23.2765 24.3728 23.2687 24.1828C25.3484 22.6143 27.9809 21.667 30.8355 21.667C31.1766 21.667 31.5124 21.6798 31.8457 21.7055L31.8017 21.7029C33.233 22.0341 34.3102 23.2124 34.4807 24.6629L34.4833 24.6783C35.0982 26.5472 35.4521 28.6985 35.4521 30.9294C35.4521 34.1794 34.7003 37.2549 33.3621 39.9967L33.4164 39.8734C33.1451 40.4716 32.8894 41.0364 32.6698 41.6243V41.6294ZM25.909 54.4242C25.3794 54.2907 24.9144 54.0956 24.4907 53.8415L24.514 53.8543C24.9583 53.6669 25.4827 53.5103 26.0252 53.4102L26.0743 53.4025C30.2181 52.5553 30.8562 51.9572 32.2538 50.1935C32.5742 49.7905 32.9359 49.3309 33.4396 48.7739C33.543 48.6583 33.6256 48.5197 33.6747 48.3657L33.6773 48.358C34.2276 47.8728 34.5557 48.0063 35.0878 48.2245C35.6743 48.5454 36.1083 49.0871 36.2762 49.7314L36.2788 49.7494C36.3382 49.9163 36.3744 50.1062 36.3744 50.3065C36.3744 50.6274 36.284 50.9277 36.129 51.1819L36.1341 51.1742C34.4678 53.4384 31.8043 54.894 28.7998 54.894C27.7665 54.894 26.7719 54.722 25.8444 54.4037L25.909 54.4242ZM6.51535 38.1047C4.83355 33.0088 3.46435 26.9631 2.65574 20.7402L2.60149 20.2294C2.4439 19.4027 2.35607 18.4503 2.35607 17.4799C2.35607 12.8436 4.39437 8.6822 7.6288 5.83263L7.6443 5.8198C13.5732 1.65326 23.2687 4.08438 27.3634 5.40135L27.3324 5.43215C23.3669 10.2379 20.9618 16.4505 20.9618 23.2176C20.9618 23.4486 20.9644 23.6797 20.9695 23.9107V23.8773C20.9695 24.1418 20.9902 24.5166 21.0212 25.03C21.1064 26.0826 21.1555 27.3097 21.1555 28.5496C21.1555 30.6085 21.0212 32.6366 20.7577 34.6261L20.7835 34.3925C20.6983 34.9214 20.6518 35.5323 20.6518 36.1536C20.6518 39.3138 21.897 42.1865 23.9301 44.3095L23.9249 44.3044C24.185 44.5748 24.4563 44.829 24.7387 45.0668C23.6201 46.258 21.1865 48.8919 18.5979 51.988C16.7663 54.1778 15.5004 53.7568 15.0845 53.6207C13.3149 52.676 11.9276 51.2101 11.1112 49.4336L11.088 49.3771C9.32093 46.163 7.76572 42.4252 6.61869 38.5128L6.51794 38.1098L6.51535 38.1047ZM74.9188 47.2361C74.8697 47.0898 74.8077 46.964 74.7328 46.8485L74.738 46.8562C74.2885 46.0116 73.1983 45.76 71.4855 46.1117C66.1481 47.2053 64.0814 46.5327 63.3322 46.0501C67.5096 39.7554 70.8706 32.4646 73.0226 24.6757L73.1492 24.1392C74.025 20.7685 75.7248 12.8359 73.5444 8.95946C73.392 8.67193 73.2293 8.42549 73.0484 8.19444L73.0562 8.20471C69.0183 3.18587 62.8569 0 55.9463 0C55.7499 0 55.5536 0.00256723 55.3598 0.00770159H55.3883C55.2797 0.00513441 55.1532 0.00513429 55.024 0.00513429C51.5571 0.00513429 48.2219 0.569914 45.1089 1.60962L45.3285 1.54544C44.7756 1.44276 44.2202 1.35547 43.6622 1.28359C42.4015 1.04484 40.9418 0.895946 39.4486 0.872841H39.428C39.2135 0.862573 38.9629 0.857438 38.7098 0.857438C35.3126 0.857438 32.1531 1.86891 29.5206 3.60689L29.5826 3.56838C26.8158 2.53894 14.1235 -1.70974 6.26735 3.81996C2.42065 7.08028 0 11.8989 0 17.2823C0 18.322 0.0904192 19.3411 0.263508 20.3321L0.248007 20.2268C1.11345 27.1531 2.51882 33.3862 4.46413 39.3805L4.26004 38.6515C5.53366 43.0567 7.10954 46.869 9.04451 50.4605L8.88692 50.1422C10.0055 52.6683 11.9405 54.6707 14.3534 55.8541L14.4206 55.8849C14.8546 56.0107 15.3532 56.0852 15.8699 56.0852C17.7868 56.0852 19.466 55.0814 20.4063 53.5719L20.4192 53.5488C23.0052 50.4579 25.5525 47.6905 26.6969 46.4685C27.9938 47.1848 29.5309 47.6263 31.1688 47.6777H31.1843L31.1869 47.6905C30.9148 48.0123 30.6487 48.3391 30.3886 48.6712C29.2933 50.0523 29.0659 50.3373 25.5447 51.0586C24.5424 51.264 21.8815 51.8083 21.8427 53.6618C21.8427 53.672 21.8427 53.6823 21.8427 53.6951C21.8427 54.0725 21.9538 54.4242 22.145 54.7194L22.1398 54.7117C22.9458 55.7258 24.0799 56.4523 25.3794 56.7347L25.4181 56.7424C26.4489 57.0761 27.6373 57.2687 28.867 57.2687C31.7087 57.2687 34.3076 56.2469 36.3175 54.5526L36.302 54.5654C36.24 55.6385 36.2065 56.8964 36.2065 58.162C36.2065 62.6623 36.6482 67.0624 37.4878 71.3188L37.4181 70.8901C38.4049 74.4149 41.5929 76.9666 45.3853 77H45.3905C46.3437 76.9923 47.266 76.8819 48.1547 76.6817L48.0695 76.6971C53.027 76.2581 56.9331 72.32 57.2845 67.4064L57.2871 67.3756C57.7727 64.5825 58.5839 58.1518 59.0257 54.2188C59.0464 54.052 59.1135 53.9031 59.2117 53.7799L59.2091 53.7824C59.2117 53.7799 59.4339 53.631 60.5887 53.88L60.7307 53.9031L61.5497 53.975L61.5988 53.9775C61.8442 53.9878 62.1335 53.9955 62.4229 53.9955C65.0683 53.9955 67.5948 53.4821 69.9018 52.5476L69.7701 52.5938C71.8497 51.6363 75.5982 49.2822 74.9188 47.2361Z" fill="#F0E8DF"/>
</svg>
