<svg width="56" height="76" viewBox="0 0 56 76" fill="none" xmlns="http://www.w3.org/2000/svg">
<path d="M21.7776 37.9987H3.1118C1.39409 37.9987 0 39.3967 0 41.1247V72.3741C0 74.0996 1.3916 75.5 3.1118 75.5H24.887V41.1247C24.887 39.3992 23.4954 37.9987 21.7751 37.9987H21.7776ZM37.3317 19.2481H18.6658C16.9481 19.2481 15.554 20.646 15.554 22.3741V36.4358H21.7751C24.3517 36.4383 26.4379 38.5364 26.4404 41.1222V75.4975H40.4385V22.3716C40.4385 20.646 39.0469 19.2456 37.3267 19.2456L37.3317 19.2481ZM55.9975 3.62344V72.3741C55.9975 74.0996 54.6059 75.5 52.8857 75.5H41.9969V22.3741C41.9944 19.7858 39.9058 17.6902 37.3317 17.6877H31.1106V3.62594C31.1106 1.90042 32.5022 0.5 34.2224 0.5H52.8882C54.6059 0.5 56 1.89792 56 3.62594L55.9975 3.62344Z" fill="#F0E8DF"/>
</svg>
