<svg width="75" height="65" viewBox="0 0 75 65" fill="none" xmlns="http://www.w3.org/2000/svg">
<path d="M37.5175 26.1978C38.8052 26.1979 40.0642 26.561 41.1359 27.2415C42.2076 27.9219 43.0441 28.8893 43.54 30.0218C44.0359 31.1543 44.1692 32.4014 43.923 33.6059C43.6768 34.8104 43.0621 35.9186 42.1563 36.7909C41.2506 37.6633 40.0943 38.2608 38.8329 38.5082C37.5716 38.7556 36.2616 38.6419 35.0679 38.1814C33.8743 37.7209 32.8502 36.9341 32.1248 35.9202C31.3994 34.9063 31.0049 33.7105 30.9912 32.4834C30.9866 31.6623 31.1517 30.8484 31.4772 30.0882C31.8027 29.3279 32.2822 28.6362 32.8882 28.0525C33.4942 27.4689 34.2149 27.0047 35.0092 26.6864C35.8035 26.3682 36.6558 26.2022 37.5175 26.1978ZM21.3588 59.089C23.5575 60.3527 28.3388 58.4238 33.9228 53.4353C32.0564 51.4142 30.2976 49.3053 28.6529 47.1165C25.8379 46.816 23.0419 46.372 20.2769 45.7862C18.497 52.9032 19.1601 57.792 21.3588 59.089ZM23.8367 39.9995L22.8246 38.3033C22.43 39.2375 22.0921 40.1924 21.8125 41.1634C22.7548 41.363 23.8018 41.5293 24.8837 41.6956L23.8367 39.9995ZM46.6612 37.4719L49.4881 32.4834L46.6612 27.4948C45.6142 25.7322 44.4974 24.1691 43.4853 22.606C41.6007 22.5063 39.6114 22.5063 37.5175 22.5063C35.4235 22.5063 33.4342 22.5063 31.5496 22.5063C30.5375 24.0693 29.4207 25.6324 28.3737 27.3951L25.5468 32.4834L28.3737 37.4719C29.4207 39.2345 30.5375 40.7976 31.5496 42.3607C33.4342 42.3607 35.4235 42.3607 37.5175 42.3607C39.6114 42.3607 41.6007 42.3607 43.4853 42.3607C44.4974 40.7976 45.6142 39.2345 46.6612 37.4719ZM37.5175 15.1232C36.8544 15.8549 36.1564 16.6198 35.4584 17.5177H39.5765C38.8786 16.6198 38.1806 15.8549 37.5175 15.1232ZM37.5175 49.8435C38.1806 49.1119 38.8786 48.347 39.5765 47.449H35.4584C36.1564 48.347 36.8544 49.1119 37.5175 49.8435ZM53.6412 5.87777C51.4774 4.614 46.6612 6.54291 41.1121 11.5315C42.9785 13.5525 44.7373 15.6614 46.382 17.8503C49.1944 18.1068 51.9904 18.5064 54.758 19.0475C56.5379 11.9305 55.8748 7.04176 53.6412 5.74474M51.1982 24.8343L52.2103 26.5304C52.6049 25.5962 52.9428 24.6413 53.2224 23.6703C52.2801 23.4707 51.2331 23.3044 50.1512 23.1382L51.1982 24.8343ZM56.2587 1.55436C61.389 4.34794 61.9474 11.6977 59.7487 20.2781C68.6133 22.7723 75 26.9295 75 32.5166C75 38.1038 68.6133 42.2609 59.7487 44.7552C61.9125 53.3355 61.3541 60.6853 56.2587 63.4789C51.1633 66.2725 44.2182 63.0798 37.5175 56.9938C30.8167 63.0798 23.8716 66.2725 18.7413 63.4789C13.611 60.6853 13.0875 53.5018 15.2513 44.7552C6.38669 42.2609 0 38.1038 0 32.5166C0 26.9295 6.38669 22.7391 15.2513 20.2448C13.0875 11.6645 13.6459 4.31469 18.7413 1.5211C23.8367 -1.27249 30.8167 1.92018 37.5175 8.00622C44.2182 1.92018 51.1633 -1.27249 56.2587 1.5211M55.2466 32.4834C56.4587 34.9316 57.5305 37.4406 58.4574 39.9995C65.7864 37.9043 69.9046 34.9111 69.9046 32.4834C69.9046 30.0556 65.6817 27.0625 58.4574 24.9673C57.5305 27.5261 56.4587 30.0352 55.2466 32.4834ZM19.7883 32.4834C18.5762 30.0352 17.5044 27.5261 16.5775 24.9673C9.24849 27.0625 5.13029 30.0556 5.13029 32.4834C5.13029 34.9111 9.35319 37.9043 16.5775 39.9995C17.5044 37.4406 18.5762 34.9316 19.7883 32.4834ZM51.1982 39.9995L50.1512 41.6956C51.2331 41.6956 52.2801 41.363 53.2224 41.1634C52.9428 40.1924 52.6049 39.2375 52.2103 38.3033L51.1982 39.9995ZM41.0074 53.4353C46.5565 58.4238 51.4774 60.3527 53.5365 59.089C55.5956 57.8252 56.4332 53.0362 54.6533 45.7862C51.8857 46.3273 49.0897 46.727 46.2773 46.9834C44.6365 49.2177 42.8776 51.3711 41.0074 53.4353ZM23.8367 24.9673L24.8837 23.2712C23.8018 23.2712 22.7548 23.6038 21.8125 23.8033C22.0921 24.7743 22.43 25.7293 22.8246 26.6634L23.8367 24.9673ZM34.0275 11.5315C28.3737 6.54291 23.5575 4.614 21.3588 5.87777C19.1601 7.14153 18.497 11.9305 20.2769 19.1806C23.0445 18.6394 25.8405 18.2398 28.6529 17.9833C30.3277 15.7468 32.1216 13.5933 34.0275 11.5315Z" fill="#F0E8DF"/>
</svg>
