<?xml version="1.0" encoding="UTF-8" standalone="no"?>
<!DOCTYPE svg PUBLIC "-//W3C//DTD SVG 1.1//EN" "http://www.w3.org/Graphics/SVG/1.1/DTD/svg11.dtd">
<svg fill="#000" width="100%" height="100%" viewBox="0 0 288 200" version="1.1" xmlns="http://www.w3.org/2000/svg" xmlns:xlink="http://www.w3.org/1999/xlink" xml:space="preserve" xmlns:serif="http://www.serif.com/" style="fill-rule:evenodd;clip-rule:evenodd;stroke-linejoin:round;stroke-miterlimit:2;">
    <g transform="matrix(3.130435,0,0,3.125,0,0)">
        <path d="M38.33,6.98C41.28,3.91 45.38,2 49.92,2C55.96,2 61.22,5.37 64.03,10.36C66.47,9.27 69.17,8.66 72,8.66C82.89,8.66 91.71,17.56 91.71,28.55C91.71,39.54 82.88,48.44 72,48.44C70.67,48.44 69.37,48.31 68.12,48.05C65.65,52.45 60.94,55.43 55.54,55.43C53.28,55.43 51.14,54.91 49.24,53.98C46.74,59.87 40.9,64 34.11,64C27.32,64 21,59.52 18.68,53.24C17.67,53.45 16.62,53.57 15.54,53.57C7.11,53.57 0.28,46.67 0.28,38.15C0.28,32.44 3.35,27.46 7.91,24.79C6.97,22.63 6.45,20.24 6.45,17.74C6.45,7.94 14.4,0 24.21,0C29.97,0 35.09,2.74 38.33,6.98Z" style="fill-rule:nonzero;"/>
    </g>
    <g transform="matrix(3.130435,0,0,3.125,0,0)">
        
        
        
        
        
        
        
        
        
        
    </g>
</svg>
