<svg width="75" height="75" viewBox="0 0 75 75" fill="none" xmlns="http://www.w3.org/2000/svg">
<path fill-rule="evenodd" clip-rule="evenodd" d="M46.2075 3.75C79.1737 26.3419 68.5125 51.2531 68.5125 51.2531C68.5125 51.2531 77.8875 61.9208 74.0963 71.25C74.0963 71.25 70.23 64.7168 63.7462 64.7168C57.495 64.7168 53.8237 71.25 41.2462 71.25C13.2412 71.25 0 47.6715 0 47.6715C25.23 64.3992 42.4575 52.5531 42.4575 52.5531C31.0912 45.9029 6.9112 14.0991 6.9112 14.0991C27.9674 32.1644 37.0688 36.9287 37.0688 36.9287C31.6388 32.402 16.4025 10.2832 16.4025 10.2832C28.59 22.7222 52.8075 40.0763 52.8075 40.0763C59.685 20.8699 46.2075 3.75 46.2075 3.75Z" fill="#F0E8DF"/>
</svg>
