<svg width="201" height="200" viewBox="0 0 201 200" fill="none" xmlns="http://www.w3.org/2000/svg">
<path d="M87.9281 200V185.422C70.3439 184.021 55.9126 175.33 44.2396 162.644H156.646C145.419 175.508 130.236 184.055 112.958 185.422V200C147.08 193.636 176.641 175.188 191.548 142.599C216.047 89.0379 188.318 23.6201 132.072 5.01833C123.262 2.10499 113.61 0.119178 104.311 0.00847501C78.2479 -0.301765 52.889 7.8996 33.3174 25.5959C-8.28855 63.2151 -11.4091 132.965 30.1336 172.17C46.7211 187.824 65.8331 195.879 87.9281 200ZM100.671 5.01796C103.049 7.09958 105.253 9.1791 106.996 11.8514C116.522 26.4628 100.338 39.0624 91.1136 48.2967C81.7093 57.7109 72.3572 67.1808 62.8982 76.5399C54.9969 84.3579 46.799 91.8082 43.7485 102.965C41.6547 110.622 43.678 117.73 44.6947 125.287C41.6487 122.955 39.4384 119.42 37.4428 116.176C21.5962 90.4183 48.4309 68.6723 65.251 52.7157C69.1047 49.0593 72.7963 45.2216 76.5508 41.4632C81.5231 36.4857 86.8072 31.6813 91.4895 26.4295C94.8468 22.6647 97.6747 18.0763 99.1055 13.2181C99.8805 10.5863 99.6311 7.49241 100.671 5.01796ZM127.976 11.8514C142.875 23.2921 130.635 40.6231 121.149 50.119C107.13 64.1526 93.3295 78.4661 78.8263 91.9904C68.6455 101.484 56.992 114.073 56.982 128.932C45.3787 119.307 51.886 100.454 59.2097 90.6643C65.3001 82.5229 73.3334 75.7818 80.6466 68.7794C87.1444 62.5568 93.1807 55.8395 99.7603 49.7039C108.134 41.8964 117.128 33.9664 123.232 24.1517C125.714 20.1601 126.202 15.9684 127.976 11.8514ZM141.173 36.452C142.737 41.3456 143.888 46.3118 143.371 51.4857C141.979 65.4127 128.236 75.58 118.795 84.4344C112.111 90.7035 105.782 97.3921 99.3053 103.876C88.5306 114.662 77.775 125.605 74.9412 141.232C73.9141 146.897 74.8911 151.605 75.6406 157.177C61.6053 149.033 63.6309 127.459 70.0144 115.265C74.7355 106.247 81.6665 99.9387 88.8382 92.9353C96.6125 85.3437 104.209 77.5791 112.046 70.0568C119.299 63.0957 126.772 56.075 133.157 48.2967C136.159 44.639 138.092 39.8678 141.173 36.452ZM163.928 46.4744C165.684 51.8806 167.021 57.6071 165.992 63.3303C163.888 75.0293 152.345 84.0075 144.115 91.6214C137.311 97.9164 130.966 104.683 124.335 111.158C110.887 124.29 97.94 137.293 97.94 157.177H97.4849C93.3809 150.52 89.139 144.426 89.3001 136.221C89.5186 125.119 97.3734 116.288 104.766 108.887C116.75 96.8905 129.047 85.1879 141.173 73.346C146.666 67.9826 152.103 62.5049 156.897 56.4969C159.384 53.3799 161.144 49.2315 163.928 46.4744ZM163.473 82.9197C164.045 90.18 164.815 96.5137 161.714 103.42C158.515 110.544 152.037 115.779 146.634 121.187C135.808 132.025 124.994 142.01 120.694 157.177C113.326 151.065 115.667 138.811 118.881 131.21C123.18 121.043 132.513 114.009 140.263 106.591C148.197 98.997 155.452 90.2575 163.473 82.9197Z" fill="#282F3C"/>
</svg>
