<svg width="75" height="76" viewBox="0 0 75 76" fill="none" xmlns="http://www.w3.org/2000/svg">
<path d="M62.3562 60.6585L48.8972 38.0025L62.3562 15.3365L68.8532 37.9975L62.3537 60.6535L62.3562 60.6585ZM32.3622 58.483L15.4371 41.686H42.3427L55.7967 64.3445L32.3597 58.488L32.3622 58.483ZM32.3622 17.517L55.7967 11.6605L42.3452 34.319H15.4346L32.3622 17.517ZM75 30.2904L66.7925 0.5L36.1558 8.48463L31.6245 16.2667L22.4217 16.1992L0 38.0025L22.4242 59.8083L31.622 59.7358L36.1658 67.5179L66.79 75.5L75 45.7221L70.3386 38.0025L75 30.2904Z" fill="#F0E8DF"/>
</svg>
