<svg width="200" height="94" viewBox="0 0 200 94" fill="none" xmlns="http://www.w3.org/2000/svg">
<g opacity="0.5">
<path d="M32.0631 69.2885C31.0333 72.5667 27.875 74.5335 23.9615 74.5335C20.0481 74.5335 17.1644 72.7391 16.0316 69.2885L0.0343323 22.2219H11.8778L24.2705 62.2492L37.2469 22.2219H48.8501L32.0631 69.2885Z" fill="#00AE44"/>
<path d="M56.8486 74.4645V22.2219H67.6621V74.4645H56.8486Z" fill="#00AE44"/>
<path d="M107.93 69.2885C106.9 72.5667 103.742 74.5335 99.8284 74.5335C95.9149 74.5335 93.0313 72.7391 91.8984 69.2885L75.9354 22.2219H87.779L100.172 62.2492L113.148 22.2219H124.717L107.93 69.2885Z" fill="#00AE44"/>
<path d="M176.897 73.4294H166.598V67.0458H166.289C162.856 71.3245 157.432 75.1892 149.228 75.1892C138.002 75.1892 125.3 66.183 125.3 48.3089C125.3 32.4014 136.56 21.739 150.086 21.739C158.428 21.739 163.405 26.1214 166.426 30.1241H166.632V23.3263H176.931L176.897 73.4294ZM151.459 65.4931C159.423 65.4931 166.701 58.5917 166.735 48.654C166.735 38.1641 159.972 31.2627 151.596 31.2627C140.954 31.2627 135.908 39.8892 135.908 48.3089C135.873 56.9354 140.817 65.4931 151.459 65.4931Z" fill="#00AE44"/>
<path d="M191.04 27.3633C186.131 27.3633 182.149 23.3607 182.149 18.4263V17.9432H181.668C179.3 17.9432 177.068 17.0115 175.386 15.3207C173.704 13.6299 172.777 11.387 172.777 9.00605C172.777 6.62513 173.704 4.38221 175.386 2.6914C177.068 0.966093 179.3 0.0344238 181.668 0.0344238H191.04C193.409 0.0344238 195.64 0.966093 197.322 2.65689C199.004 4.34771 199.931 6.59062 199.931 8.97154V18.3918C199.931 23.3262 195.949 27.3633 191.04 27.3633ZM181.668 4.20967C180.398 4.20967 179.197 4.69276 178.304 5.58994C177.412 6.4871 176.931 7.69482 176.931 8.97154C176.931 10.2483 177.412 11.456 178.304 12.3532C179.197 13.2503 180.398 13.7334 181.668 13.7334H186.303V18.3918C186.303 21.0142 188.431 23.1536 191.04 23.1536C193.649 23.1536 195.778 21.0142 195.778 18.3918V8.97154C195.778 7.69482 195.297 6.4871 194.404 5.58994C193.512 4.69276 192.31 4.20967 191.04 4.20967H181.668Z" fill="#73C900"/>
</g>
</svg>
